<svg id="logo" xmlns="http://www.w3.org/2000/svg" viewBox="0 0 600 110">
    <defs>
        <style>.cls-1{fill:#f7b8c3;}.cls-2{fill:#f3bf9f;}.cls-3{fill:#a8d6d9;}.cls-4{fill:#212121;}</style>
    </defs>
    <g>
        <path class="cls-2"
              d="M5.03,53.46c.42-.2,.93-.27,1.45-.24,7.09,.39,14.18,.76,21.27,1.19,2.32,.14,3.81,1.84,3.69,3.99-.12,2.15-1.81,3.72-4.07,3.61-7.05-.35-14.1-.75-21.14-1.17-1.98-.12-3.48-1.56-3.7-3.37-.21-1.68,.82-3.36,2.5-4.01Z"/>
        <path class="cls-3"
              d="M43.25,53.49c-1.97,.4-3.48-.33-4.29-2.19-2.84-6.53-5.67-13.07-8.48-19.62-.83-1.94,.25-4.23,2.3-5.11,1.65-.71,3.92,.24,4.71,2.08,2.87,6.61,5.72,13.23,8.53,19.88,.87,2.07-.56,4.52-2.78,4.97Z"/>
        <path class="cls-1"
              d="M49.12,57.94c1.56,1.26,1.97,2.89,1.05,4.7-3.21,6.36-6.44,12.71-9.69,19.05-.96,1.87-3.42,2.51-5.4,1.49-1.6-.82-2.32-3.17-1.41-4.96,3.26-6.43,6.53-12.85,9.85-19.25,1.04-1.99,3.84-2.45,5.59-1.03Z"/>
    </g>
    <g>
        <path class="cls-4"
              d="M91.21,40.28c-2.54,0-4.95-.51-7.49-.51-4.44,0-12.56-.25-16.49-2.41-.25-.13-.51-.25-.51-.38,.25-6.47,23.73-19.16,27.91-20.81,4.19-1.65,8.37-3.43,12.69-4.95,4.31-1.4,8.63-2.41,12.94-2.41,1.4,0,7.23,.51,7.87,2.79-.13,2.54-5.71,9.9-7.1,9.9-.13,0-.38-.13-.51-.25-.25-.13-.51-.25-.63-.38-.51-.38-1.02-.76-1.52-.76-.25,0-1.01,.63-1.01,1.4,0,3.68,1.65,8.25,3.81,8.25,2.79,0,9.39-7.74,10.66-12.18,.51-1.65,.63-2.92,.63-4.69,0-2.28-1.02-4.19-1.78-5.46-3.3-4.82-6.98-5.46-10.91-5.46-4.44,0-8.88,1.02-13.32,2.41-12.05,3.81-44.15,18.65-44.15,30.2,0,2.66,1.52,6.09,2.54,7.49,3.43,4.44,16.11,4.57,21.31,4.57,3.55,0,25.63,1.27,25.63,7.23,0,1.9-2.28,5.2-3.17,6.22-9.9,10.78-28.8,19.41-40.22,19.41-.38,0-.89-.13-1.4-.13,1.14-2.66,4.44-5.2,7.87-7.49,1.01-.76,9.39-6.09,10.02-6.22,.76-.13,1.02-.25,1.65-.63,.25-.25,.51-.51,.76-.63,1.27-.51,2.41-.89,3.68-1.52,1.14-.63,2.41-1.4,3.43-2.66l.13-1.02c.13-.25,0-.51-.13-.76,0-.76-2.66-2.16-3.17-2.16-4.31,0-28.8,13.19-28.8,21.57,0,.63,.25,1.4,.38,2.03,1.52,5.71,4.31,5.71,7.23,5.71,2.66,0,5.46-.25,8.12-1.14,9.64-3.3,29.05-10.15,36.03-22.71,.89-1.52,1.65-3.43,1.65-5.58,0-14.84-19.28-15.86-24.61-15.86Z"/>
        <path class="cls-4"
              d="M180.91,77.33l.13-.13s-.25-.89-.25-1.02v-.38l-.25-.38c-.25,0-.38-.13-.51-.25,0-.13-.13-.13-.25-.25l-.51-.76v-.25c0-8.25,7.1-22.96,10.91-30.58,3.93-7.74,8.12-15.1,11.8-21.7,.63-1.27,1.9-3.81,2.03-5.2,.13-1.02-.25-1.4-1.27-2.28-.51-.38-.89-.63-1.01-.89-.25-.25-.38-.38-.63-.38-4.19,0-22.2,24.87-26.26,31.21l-3.04,4.44c-3.43,4.95-5.96,9.01-8.37,12.69-.25,.51-1.14,1.65-1.65,1.65,0,0-.25-.63,.13-1.65,0-.25,.13-.38,.13-.51,1.4-6.85,12.94-26.39,17.64-34,.38-.63,.76-1.27,1.14-2.03v-.13l.38-.13c2.66-4.82,5.46-9.64,8.5-14.21,.38-.76,3.55-2.41,4.06-3.05,1.52-2.28-.51-4.19-1.52-4.95-.89-.63-2.03-1.02-2.54-1.02-.38,0-.76,.25-1.14,.63-.63,.76-1.14,1.65-1.65,2.66-9.64,13.66-19.74,30.26-26.7,45.39-.39,.27-.74,.57-1.08,.92-1.02,.89-1.9,1.9-2.92,2.66-.76,.51-5.08,4.06-5.33,4.69-.89,.38-1.52,1.14-2.28,1.78-1.9,1.52-4.19,3.3-6.47,4.44-.13,.13-.38,0-.38-.25-.13-1.01,.13-1.9,.25-2.79,.13-.51,.13-.89,.25-1.4,1.27-3.55,3.93-10.4,6.47-13.32,.25-.13,.38-.25,.38-.51,0-.89-.13-1.65-.51-2.41-.38-1.27-1.78-1.78-2.92-1.78-.13,0-.38,0-.51-.13-.13-.13-.89-.13-1.02-.13q-.76,.13-.76,.89c-.13,.51-.25,.51-.63,.51-.13,0-.25-.13-.25-.13-.76-.13-1.52-.38-2.28-.38-8.75-.13-19.67,9.77-22.96,17.13-.51,1.14-.38,2.16-.13,3.3,0,.51,.51,.76,.63,1.14,.76,2.03,3.43,3.3,5.46,3.3,4.69,0,9.52-4.31,12.94-7.36v1.52c0,3.55,3.17,7.87,6.85,7.87,1.65,0,3.68-1.14,5.08-2.03,2.5-1.9,4.92-3.88,7.38-5.93-1.12,3.36-1.99,6.8-2.05,9.36-.13,3.81,3.05,5.84,4.82,5.84,2.16,0,.89-1.4,1.78-3.04,.51-.76,.89-1.65,1.4-2.54,4.19-7.74,7.74-16.62,12.81-23.85,2.79-3.93,5.46-7.74,7.99-11.67,1.14-1.78,10.02-13.32,11.93-13.32,.13,0,.25,0,.38,.13,.13,.38-1.9,3.3-2.28,3.93,0,0-3.17,5.84-3.17,6.22,0,0-.13,.25-.13,.38-.13,.13-.13,.25-.13,.38-5.08,9.52-13.83,26.64-14.72,37.17-.38,5.2,3.93,7.49,6.09,7.61,.13,0,.63-.51,.76-.76Zm-41.23-29.31c-.76,.63-1.52,1.4-2.28,2.16-1.9,2.16-4.57,5.2-6.72,6.72-.76,.63-1.4,1.4-2.16,2.03-1.4,1.01-2.54,2.28-4.06,2.92-.38,.25-.76,.51-1.01,.76-.25,.13-.38,.25-.63,.25-.38,0-.51-.13-.38-.51,1.65-3.3,8.88-11.55,11.55-12.18l.25-.25c.51-.38,1.02-1.02,1.78-.89,.38-.76,1.27-.63,1.9-1.14,.38-.25,1.02-.13,1.4-.51,.13,0,.25,.13,.38,.25,.25,.13,0,.25,0,.38Z"/>
        <path class="cls-4"
              d="M222.22,59.41q.16,.23,.27,.09c.11-.14,.38-.05,.5-.07,1.11-.29,1.58-1.51,.82-2.3-.32-.47-.75-.79-1.4-.82-.25,.04-.65-.03-.81-.27-.49-.7-1.26-.72-2.01-.61-.41,.06-.86,.19-1.32,.35-.07-.6-.06-1.49-.06-1.66,.19-.67,.31-1.34,.36-2.01,.62-2.18,1.12-4.57,1.12-6.74,0-.38-1.14-1.14-1.4-1.27-.38-.13-.63-.25-.89-.51-.63-.51-1.4-.63-2.03-.63h-1.02c-.13,.13-.25,.13-.25,.25-1.01,1.02-2.16,2.03-3.3,2.92-1.14,1.01-2.28,2.16-3.43,3.17-.76,.76-1.52,1.4-2.28,2.16-1.14,1.27-2.28,2.41-3.43,3.43-.76,.63-1.52,1.27-2.16,2.03-.38,.38-1.01,.76-1.4,1.4-1.14,.63-3.17,2.66-4.19,3.68-.13,.13-.51,.38-1.01,.51,.13-.38,.25-.51,.25-.76,.25-.38,.51-.76,.63-1.14,.13-.51,.51-.63,.63-1.02,.13-.51,.51-.76,.76-1.14l.76-1.14c.13-.38,.51-.63,.76-1.01,.13-.38,.63-.51,.51-1.02,.51-.25,.76-.76,1.02-1.14,.25-.25,.38-.63,.63-.76,.13-.13,1.4-1.78,1.52-1.9,1.27-2.03,3.05-4.06,4.57-5.71,.38-.25,.76-.51,.89-1.02,.76-.89,1.27-1.65,1.78-2.41,.25-.25,.25-.63,0-1.02-.51-.63-.89-1.02-1.52-1.4-.51-.13-1.14-.25-1.4-.89-.13-.13-.38-.13-.63,0-.13,0-.38,.13-.51,.25-.51,.63-1.14,1.52-1.78,2.16-1.65,1.9-3.17,3.68-4.82,5.46-1.14,1.4-2.28,2.92-3.3,4.44l-1.52,1.9c-1.52,2.16-3.93,5.84-4.57,8.37-.25,.63-.38,1.27-.13,2.03,.63,1.9,2.03,4.82,4.44,4.82,2.28-.13,5.07-2.16,6.6-3.68,.63-.51,1.27-.89,1.78-1.52,.63-.63,1.52-1.02,1.9-1.9,.25-.13,.38-.38,.51-.63s.51-.13,.63-.38c.38-.38,1.9-2.03,2.28-2.28,.25-.13,2.66-2.16,2.79-2.54,.38,0,.51-.25,.63-.51,0-.13,0-.25,.13-.38,0,0,2.79-2.41,2.92-2.54,0-.13,.89-1.02,1.02-1.14h.38c.13,.13,0,.13,0,.25-.25,.89-.38,1.9-.63,2.79-.08,.16-.46,3.11-.76,5.27-.03,.04-.05,.09-.08,.13-.29,.23-.59,.47-.87,.72,0,.03,0,.05,0,.08,0,0-.02,.01-.03,.02l-1.9,1.52c-.25,.25-.51,.51-.89,.76-.89,.76-1.78,1.52-2.66,2.41-1.52,1.14-3.17,2.54-4.31,3.93-.51,.38-.89,.89-1.4,1.14-.13,.13-.25,.25-.38,.51-.25,.38-.63,.63-1.01,1.02-.63,.51-1.27,1.27-1.9,1.9-1.78,2.16-3.81,4.44-5.84,6.47-4.95,4.95-12.18,14.72-13.32,21.57-.25,1.02-.13,2.03,.25,2.92,.76,2.41,2.92,4.44,5.46,4.44,.76,0,1.4-.13,2.03-.63,.13-.13,.38-.25,.63-.38,1.14-.38,2.16-1.02,3.05-1.65,.89-.76,1.52-1.78,2.54-2.41,.89-1.27,2.16-2.28,3.17-3.43,5.33-6.47,10.4-13.32,14.59-20.55,.76-1.52,1.65-3.3,2.54-4.69,.76-1.02,1.02-2.28,1.65-3.3,.13-.63,.38-1.27,.63-1.78,1.01-2.28,1.78-4.57,2.54-6.98,.13-.25,.84-.44,.59-.82,.13-.38,.05-.7,.43-.83,.05-.09,.07-.17,.11-.25,.17-.11,.33-.23,.5-.33,.95-.52,1.88-1.17,2.98-1.58,.13-.02,.23-.16,.36-.18,.25-.04,.54,.18,.7,.41Zm-13.78,9.8c-.25,.38-.25,.76-.51,1.14-.76,1.4-1.52,3.05-2.41,4.44-.89,1.4-1.65,2.92-2.54,4.31-1.78,3.55-4.31,6.98-6.72,10.15-.38,.51-.76,1.14-1.14,1.65-.51,.63-.89,1.27-1.4,1.78-.63,.89-1.4,1.65-1.9,2.54-.51,.51-.89,1.01-1.4,1.52-1.14,1.14-2.16,2.41-3.17,3.55-.76,.76-1.4,1.4-2.28,2.03-.25,.13-.51,.51-.51,.76-.13,.38-.25,.38-.51,.38s-.38,0-.51,.13c-.25,.13-.38,.13-.51,.13s-.13-.13-.13-.51v-.63c0-1.02,.13-1.9,.76-2.79,0-.13,.76-2.54,1.01-2.79,.25-.13,.38-.38,.38-.76,.13-.38,.25-.63,.63-.89,.51-.63,.76-1.4,1.14-2.03,1.14-1.52,2.16-3.3,3.43-4.69,.38-.63,1.78-2.28,2.03-2.79,.51-.76,1.27-1.4,1.65-2.16,.25-.13,1.52-1.52,1.9-1.9,1.14-1.9,8.63-9.64,9.39-10.02,.13-.13,.25-.38,.63-.38,.13-.76,.89-.89,1.14-1.27l1.14-1.14c.13-.13,.25-.13,.38,0,.13,0,0,.13,0,.25Z"/>
        <path class="cls-4"
              d="M245.92,35.99c-5.71,0-17.51,8.75-20.43,13.45-.76,1.02-1.01,2.16-.63,3.43,.13,.51,.38,1.14,.51,1.65,.38,3.04,3.68,4.69,6.47,4.82h4.06c1.4,0,2.79,0,4.06-.25,.63,0,3.17,0,3.3,.63,0,.13-.13,.25-.25,.38-5.07,3.04-11.29,5.58-17.25,5.58-.63,0-2.28-.13-2.28-1.02,0-.13-.13-.25-.25-.13-.25,.13-.51,.13-.76,.13-.38,.13-.76,.25-.89,.51-.25,.25-.13,.63-.13,.89v.38c0,.63,.13,1.27,.76,1.52,.38,.25,.63,.51,.89,.89,1.27,1.78,3.05,2.03,5.07,2.03h1.27c.63,0,1.27,0,1.78-.38,.13-.13,.38,0,.51,0,3.3,0,11.42-3.93,14.34-5.71,.51-.25,1.14-.76,1.65-1.27,.76-.89,1.14-1.9,1.52-3.05v-.51c-.25-1.4-1.9-3.68-3.17-4.19-.25-.13-.51-.38-.76-.51,0-.13,0-.25-.13-.25-.63,0-1.14-.13-1.65-.51-1.14-.38-4.06-.63-5.33-.63-.51,0-1.14,.13-1.78,.13s-1.14-.13-1.78-.25c-.38,.25-.51,.25-.63,.25h-1.14c-.51,0-3.55-.13-3.55-.38-.13-.13-.13-.38,0-.51,3.68-4.06,12.81-11.55,18.52-11.55,.63,0,1.14,.25,1.52,.63,.51,.51-2.41,4.57-2.03,5.08,.38,.25,4.06-3.3,4.44-3.68,.51-.76,.76-1.78,.13-2.79-1.27-2.16-3.17-4.82-5.96-4.82Z"/>
        <path class="cls-4"
              d="M225.76,33.12c1.27,.25,8.25-6.98,7.49-8.63-.38-1.02-1.78-2.41-2.92-2.41-.63,0-1.4,.13-1.65,.38-.25,0-.51-.13-.76-.13q-.13,0-.25,.13c-.38,.13-.13,.63-.25,.89-.25,.38-.25,.89-.13,1.14,.25,.63,.13,1.27,.13,1.9,.25,.63-2.28,6.6-1.65,6.72Z"/>
    </g>
    <g>
        <path class="cls-4"
              d="M270.04,42.98c0-.36,.29-.69,.69-.69h8.32c4.32,0,7.66,2.91,7.66,6.72,0,2.8-2.29,4.98-4,5.78,1.93,.62,4.72,2.58,4.72,5.92,0,4.07-3.49,7.01-7.92,7.01h-8.79c-.4,0-.69-.33-.69-.69v-24.05Zm8.57,9.99c1.85,0,3.12-1.45,3.12-3.27s-1.27-3.09-3.12-3.09h-3.89v6.36h3.89Zm.51,10.46c1.82,0,3.27-1.42,3.27-3.31s-1.82-3.16-3.7-3.16h-3.96v6.47h4.4Z"/>
        <path class="cls-4"
              d="M292.78,66.77l11.3-24.45c.11-.22,.29-.4,.62-.4h.36c.36,0,.51,.18,.62,.4l11.19,24.45c.22,.47-.07,.94-.62,.94h-3.16c-.55,0-.8-.22-1.05-.73l-1.78-3.92h-10.86l-1.78,3.92c-.15,.36-.47,.73-1.05,.73h-3.16c-.54,0-.84-.47-.62-.94Zm15.69-7.74l-3.63-7.99h-.11l-3.56,7.99h7.3Z"/>
        <path class="cls-4"
              d="M323.8,43.16c0-.47,.36-.87,.87-.87h3.2c.47,0,.87,.4,.87,.87v9.81l9.15-10.32c.15-.18,.36-.36,.69-.36h3.63c.69,0,1.05,.76,.58,1.31l-9.48,10.68,10.17,12.17c.36,.47,.07,1.27-.65,1.27h-3.96c-.36,0-.58-.15-.65-.25l-9.48-11.7v11.08c0,.47-.4,.87-.87,.87h-3.2c-.51,0-.87-.4-.87-.87v-23.68Z"/>
        <path class="cls-4"
              d="M351.12,42.98c0-.36,.33-.69,.69-.69h3.38c.36,0,.69,.33,.69,.69v24.05c0,.36-.33,.69-.69,.69h-3.38c-.36,0-.69-.33-.69-.69v-24.05Z"/>
        <path class="cls-4"
              d="M366.12,42.58c0-.36,.33-.65,.69-.65h.91l15.11,16.06h.04v-15c0-.36,.29-.69,.69-.69h3.34c.36,0,.69,.33,.69,.69v24.45c0,.36-.33,.65-.69,.65h-.87l-15.18-16.67h-.04v15.62c0,.36-.29,.69-.69,.69h-3.31c-.36,0-.69-.33-.69-.69v-24.45Z"/>
        <path class="cls-4"
              d="M409.06,41.92c3.27,0,6.39,1.27,8.86,3.38,.29,.29,.33,.73,.04,1.02l-2.25,2.36c-.29,.29-.62,.29-.94,0-1.56-1.38-3.49-2.11-5.48-2.11-4.54,0-8.14,3.89-8.14,8.43s3.6,8.32,8.17,8.32c2.03,0,3.6-.62,4.32-.91v-3.09h-2.91c-.4,0-.69-.29-.69-.65v-2.87c0-.4,.29-.69,.69-.69h6.97c.36,0,.65,.33,.65,.69v9.3c0,.29-.15,.47-.29,.58,0,0-3.74,2.36-9.01,2.36-7.23,0-13.04-5.74-13.04-13s5.81-13.11,13.04-13.11Z"/>
    </g>
    <g>
        <path class="cls-4"
              d="M436.14,42.98c0-.36,.29-.69,.69-.69h10.39c4.36,0,7.92,3.49,7.92,7.81,0,3.34-2.22,6.07-5.38,7.34l4.98,9.23c.25,.47,0,1.05-.62,1.05h-3.81c-.33,0-.51-.18-.58-.33l-4.83-9.63h-4.03v9.26c0,.36-.33,.69-.69,.69h-3.34c-.4,0-.69-.33-.69-.69v-24.05Zm10.68,10.9c1.93,0,3.6-1.67,3.6-3.7,0-1.93-1.67-3.52-3.6-3.52h-5.92v7.23h5.92Z"/>
        <path class="cls-4"
              d="M463.96,42.98c0-.36,.29-.69,.69-.69h14.78c.4,0,.69,.33,.69,.69v2.98c0,.36-.29,.69-.69,.69h-10.75v5.96h8.97c.36,0,.69,.33,.69,.69v3.02c0,.4-.33,.69-.69,.69h-8.97v6.36h10.75c.4,0,.69,.33,.69,.69v2.98c0,.36-.29,.69-.69,.69h-14.78c-.4,0-.69-.33-.69-.69v-24.05Z"/>
        <path class="cls-4"
              d="M500.11,41.92c3.67,0,6.32,1.16,8.79,3.38,.33,.29,.33,.73,.04,1.02l-2.22,2.29c-.25,.29-.62,.29-.91,0-1.53-1.34-3.56-2.14-5.59-2.14-4.65,0-8.1,3.89-8.1,8.46s3.49,8.39,8.14,8.39c2.18,0,4.03-.84,5.56-2.07,.29-.25,.69-.22,.91,0l2.25,2.32c.29,.25,.22,.73-.04,.98-2.47,2.4-5.59,3.52-8.83,3.52-7.26,0-13.11-5.78-13.11-13.04s5.85-13.11,13.11-13.11Z"/>
        <path class="cls-4"
              d="M517.33,42.98c0-.36,.33-.69,.69-.69h3.38c.36,0,.69,.33,.69,.69v24.05c0,.36-.33,.69-.69,.69h-3.38c-.36,0-.69-.33-.69-.69v-24.05Z"/>
        <path class="cls-4"
              d="M532.33,42.98c0-.36,.29-.69,.69-.69h8.54c4.47,0,8.14,3.63,8.14,8.03s-3.67,8.17-8.1,8.17h-4.54v8.54c0,.36-.33,.69-.69,.69h-3.34c-.4,0-.69-.33-.69-.69v-24.05Zm8.94,11.08c2.03,0,3.74-1.63,3.74-3.78,0-2-1.71-3.52-3.74-3.52h-4.21v7.3h4.21Z"/>
        <path class="cls-4"
              d="M557.47,42.98c0-.36,.29-.69,.69-.69h14.78c.4,0,.69,.33,.69,.69v2.98c0,.36-.29,.69-.69,.69h-10.75v5.96h8.97c.36,0,.69,.33,.69,.69v3.02c0,.4-.33,.69-.69,.69h-8.97v6.36h10.75c.4,0,.69,.33,.69,.69v2.98c0,.36-.29,.69-.69,.69h-14.78c-.4,0-.69-.33-.69-.69v-24.05Z"/>
        <path class="cls-4"
              d="M580.97,64.15l1.31-2.25c.29-.51,.91-.51,1.24-.25,.18,.11,3.12,2.25,5.49,2.25,1.89,0,3.31-1.23,3.31-2.8,0-1.85-1.56-3.12-4.61-4.36-3.41-1.38-6.83-3.56-6.83-7.85,0-3.23,2.4-6.97,8.17-6.97,3.71,0,6.54,1.89,7.26,2.43,.36,.22,.47,.84,.22,1.2l-1.38,2.07c-.29,.44-.84,.73-1.27,.44-.29-.18-3.05-2-5.05-2s-3.2,1.38-3.2,2.54c0,1.71,1.34,2.87,4.29,4.07,3.52,1.42,7.59,3.52,7.59,8.21,0,3.74-3.23,7.19-8.35,7.19-4.58,0-7.26-2.14-7.99-2.83-.33-.33-.51-.51-.18-1.09Z"/>
    </g>
</svg>